<svg id="Capa_1" data-name="Capa 1" xmlns="http://www.w3.org/2000/svg" viewBox="0 0 214.91 157.82"><defs><style>.cls-1{fill:#fff}</style></defs><title>caja_logo_shipit_blanca</title><path class="cls-1" d="M94.82 60.52v5c.02-1.36.01-3.3 0-5zM112.53 46.12L99.84 46zM185.3 30.18c.07.12.13.25.19.37-.06-.12-.12-.25-.19-.37zM156.82 46.51L118 46.17zM138.25 27.51c.25.01.28 0 0 0z"/><path class="cls-1" d="M112.53 46.12l5.51.05 38.77.35 31.92.27c-.07-1.15-1.43-17.7-5.65-18.85a34.66 34.66 0 0 0-6.3-.32c-4.59 0-78.78.65-79.7.7-2.37.11-2.52 2.81-2.9 4.53-1 4.45-2.2 8.66-2.88 13.17 0-.08 5.69 0 6.72 0h1.81c4.24.05 8.47.05 12.7.1zM184.34 61c0-1.59-.12-3.59-.43-3.59H95.26c-.31 0-.42 7-.42 8.61.65.1 22.24 3.59 25 4.32 6 1.58 8.79 5.54 8.62 12.11-.27 9.94-22.24 28.26-28.83 33.64-1.7 1.39-5.72 4.15-5.72 4.15 0 1.57-1 11.64 5.07 11.64 10.78 0 63.65.56 81.06.55 3.91 0 4.75-1.19 4.75-7.12.03-22.94-.58-41.31-.45-64.31z"/><path class="cls-1" d="M118.51 80.55a3.32 3.32 0 0 1-.15 1 2.8 2.8 0 0 0 .2-1v-.68c-.03.23-.05.45-.05.68zM73.13 120.52zM73 120.66l.09-.14z"/><path class="cls-1" d="M118.51 79.88c-.25-2.31-1.45-4-5.72-5.11-2.16-.57-38.47-5.82-49.89-8.84S30.07 52.48 16.42 40.31c.91 21 21.2 31.23 38.85 39.24-2.59-.28-33.12-2.19-33-2.18 9 16.28 31.88 13.86 42.84 17.6-10.13 2.23-24.56 5.47-36.06 8-.07 0-.09.07-.16.09 10.07 11.52 23.43 5.79 35.07 4-2.07 1.21-14.63 8.85-18.91 11.36l.93.42c12.56 5.5 23.09-2 34.29-9.74-2.64 3.94-5.67 8.82-8.44 11.43s.62.09.59.14c4 1.15 13.52-2.64 24.09-13.2 9.81-9.81 20.39-21.18 21.74-25.92a3.74 3.74 0 0 0 .23-1c-.06-.23.05-.45.03-.67z"/></svg>